<?xml version="1.0" encoding="UTF-8" standalone="no"?>
<!-- Created with Inkscape (http://www.inkscape.org/) -->

<svg
   xmlns:dc="http://purl.org/dc/elements/1.1/"
   xmlns:cc="http://creativecommons.org/ns#"
   xmlns:rdf="http://www.w3.org/1999/02/22-rdf-syntax-ns#"
   xmlns:svg="http://www.w3.org/2000/svg"
   xmlns="http://www.w3.org/2000/svg"
   xmlns:xlink="http://www.w3.org/1999/xlink"
   xmlns:sodipodi="http://sodipodi.sourceforge.net/DTD/sodipodi-0.dtd"
   xmlns:inkscape="http://www.inkscape.org/namespaces/inkscape"
   width="500"
   height="500"
   viewBox="0 0 132.29166 132.29167"
   version="1.1"
   id="svg8"
   inkscape:export-filename="/home/serj/Desktop/PLmockup2.png"
   inkscape:export-xdpi="96"
   inkscape:export-ydpi="96"
   inkscape:version="0.92.4 (33fec40, 2019-01-16)"
   sodipodi:docname="PL.svg">
  <defs
     id="defs2">
    <linearGradient
       inkscape:collect="always"
       id="linearGradient910">
      <stop
         style="stop-color:#a10b31;stop-opacity:1"
         offset="0"
         id="stop906" />
      <stop
         style="stop-color:#630b42;stop-opacity:1"
         offset="1"
         id="stop908" />
    </linearGradient>
    <linearGradient
       inkscape:collect="always"
       xlink:href="#linearGradient910"
       id="linearGradient912"
       x1="40.118137"
       y1="213.11961"
       x2="92.089447"
       y2="264.70309"
       gradientUnits="userSpaceOnUse" />
    <linearGradient
       inkscape:collect="always"
       xlink:href="#linearGradient910"
       id="linearGradient1037"
       gradientUnits="userSpaceOnUse"
       x1="40.118137"
       y1="213.11961"
       x2="92.089447"
       y2="264.70309" />
    <linearGradient
       inkscape:collect="always"
       xlink:href="#linearGradient910"
       id="linearGradient1039"
       gradientUnits="userSpaceOnUse"
       x1="40.118137"
       y1="213.11961"
       x2="92.089447"
       y2="264.70309" />
    <linearGradient
       inkscape:collect="always"
       xlink:href="#linearGradient910"
       id="linearGradient1041"
       gradientUnits="userSpaceOnUse"
       x1="40.118137"
       y1="213.11961"
       x2="92.089447"
       y2="264.70309" />
    <linearGradient
       inkscape:collect="always"
       xlink:href="#linearGradient910"
       id="linearGradient1043"
       gradientUnits="userSpaceOnUse"
       x1="40.118137"
       y1="213.11961"
       x2="92.089447"
       y2="264.70309" />
    <linearGradient
       inkscape:collect="always"
       xlink:href="#linearGradient910"
       id="linearGradient1045"
       gradientUnits="userSpaceOnUse"
       x1="40.118137"
       y1="213.11961"
       x2="92.089447"
       y2="264.70309" />
    <linearGradient
       inkscape:collect="always"
       xlink:href="#linearGradient910"
       id="linearGradient1047"
       gradientUnits="userSpaceOnUse"
       x1="40.118137"
       y1="213.11961"
       x2="92.089447"
       y2="264.70309" />
    <linearGradient
       inkscape:collect="always"
       xlink:href="#linearGradient910"
       id="linearGradient1049"
       gradientUnits="userSpaceOnUse"
       x1="40.118137"
       y1="213.11961"
       x2="92.089447"
       y2="264.70309" />
    <linearGradient
       inkscape:collect="always"
       xlink:href="#linearGradient910"
       id="linearGradient1051"
       gradientUnits="userSpaceOnUse"
       x1="40.118137"
       y1="213.11961"
       x2="92.089447"
       y2="264.70309" />
    <linearGradient
       inkscape:collect="always"
       xlink:href="#linearGradient910"
       id="linearGradient1053"
       gradientUnits="userSpaceOnUse"
       x1="40.118137"
       y1="213.11961"
       x2="92.089447"
       y2="264.70309" />
    <clipPath
       clipPathUnits="userSpaceOnUse"
       id="clipPath1068">
      <rect
         style="opacity:0.653;fill:#e9afaf;fill-opacity:1;stroke:none;stroke-width:0.02347337;stroke-linecap:square;stroke-linejoin:miter;stroke-miterlimit:4;stroke-dasharray:none;stroke-dashoffset:0;stroke-opacity:1;paint-order:fill markers stroke"
         id="rect1070"
         width="52.055393"
         height="52.055393"
         x="40.118137"
         y="212.90625" />
    </clipPath>
    <clipPath
       clipPathUnits="userSpaceOnUse"
       id="clipPath1137">
      <ellipse
         ry="13.090426"
         rx="11.227414"
         cy="214.3528"
         cx="138.879"
         id="ellipse1139"
         style="opacity:1;fill:#e9afaf;fill-opacity:1;stroke:none;stroke-width:0.05662814;stroke-linecap:square;stroke-linejoin:miter;stroke-miterlimit:4;stroke-dasharray:none;stroke-dashoffset:0;stroke-opacity:1;paint-order:fill markers stroke" />
    </clipPath>
    <filter
       style="color-interpolation-filters:sRGB;"
       inkscape:label="Blur"
       id="filter1260">
      <feGaussianBlur
         stdDeviation="0.11 0.01"
         result="blur"
         id="feGaussianBlur1258" />
    </filter>
    <filter
       style="color-interpolation-filters:sRGB;"
       inkscape:label="Blur"
       id="filter1396">
      <feGaussianBlur
         stdDeviation="0.21 0.21"
         result="blur"
         id="feGaussianBlur1394" />
    </filter>
  </defs>
  <sodipodi:namedview
     id="base"
     pagecolor="#ffffff"
     bordercolor="#666666"
     borderopacity="1.0"
     inkscape:pageopacity="0.0"
     inkscape:pageshadow="2"
     inkscape:zoom="0.80530071"
     inkscape:cx="217.48679"
     inkscape:cy="264.66029"
     inkscape:document-units="px"
     inkscape:current-layer="g904"
     showgrid="false"
     units="px"
     inkscape:snap-global="false"
     inkscape:window-width="1920"
     inkscape:window-height="1052"
     inkscape:window-x="0"
     inkscape:window-y="0"
     inkscape:window-maximized="1" />
  <metadata
     id="metadata5">
    <rdf:RDF>
      <cc:Work
         rdf:about="">
        <dc:format>image/svg+xml</dc:format>
        <dc:type
           rdf:resource="http://purl.org/dc/dcmitype/StillImage" />
        <dc:title></dc:title>
      </cc:Work>
    </rdf:RDF>
  </metadata>
  <g
     inkscape:label="Layer 1"
     inkscape:groupmode="layer"
     id="layer1"
     transform="translate(0,-164.70832)">
    <g
       id="g861"
       transform="matrix(2.5413633,0,0,2.5413633,-101.95476,-376.36382)">
      <g
         id="g904"
         style="fill:url(#linearGradient912);fill-opacity:1">
        <path
           style="fill:url(#linearGradient1037);fill-opacity:1;stroke:none;stroke-width:0.26458332px;stroke-linecap:butt;stroke-linejoin:miter;stroke-opacity:1"
           d="m 57.722194,214.76937 c 0,0 -5.995928,17.34403 -5.714116,19.79845 0.259862,2.26325 6.940605,12.37112 6.940605,12.37112 0,0 3.542904,-5.08203 5.459556,-6.56308 1.916652,-1.48105 10.570628,-2.55554 12.342079,-3.80427 1.771452,-1.24873 3.542903,-5.60475 3.542903,-5.60475 0,0 -7.052485,-1.26875 -8.305495,-2.64266 -1.246665,-1.36696 -0.435602,-1.10353 -3.513863,-4.06563 -3.07826,-2.9621 -5.488593,-0.60984 -7.579487,-3.04922 -2.090893,-2.43937 -3.172182,-6.43996 -3.172182,-6.43996 z"
           id="path828"
           inkscape:connector-curvature="0"
           sodipodi:nodetypes="cscsscsscc" />
        <path
           id="path834"
           style="font-style:normal;font-variant:normal;font-weight:200;font-stretch:normal;font-size:14.11111069px;line-height:1.25;font-family:'Roboto Thin';-inkscape-font-specification:'Roboto Thin, Ultra-Light';font-variant-ligatures:normal;font-variant-caps:normal;font-variant-numeric:normal;font-feature-settings:normal;text-align:start;letter-spacing:0px;word-spacing:0px;writing-mode:lr-tb;text-anchor:start;fill:url(#linearGradient1039);fill-opacity:1;stroke:none;stroke-width:0.26458332"
           d="m 45.830106,256.57352 q 0,1.74322 -0.751031,2.76985 -0.751031,1.02664 -2.046387,1.02664 -0.847493,0 -1.508952,-0.34451 -0.661458,-0.34451 -1.033528,-0.95084 v 4.02387 h -0.372071 v -10.32151 h 0.372071 v 1.32981 q 0.38585,-0.70969 1.040419,-1.08865 0.654568,-0.37896 1.488281,-0.37896 1.309136,0 2.060167,1.00597 0.751031,0.99907 0.751031,2.81119 z m -0.378961,-0.1447 q 0,-1.60541 -0.640788,-2.50803 -0.633897,-0.9095 -1.784559,-0.9095 -0.937066,0 -1.591634,0.4892 -0.654568,0.48232 -0.943956,1.39182 v 3.48644 q 0.289388,0.7717 0.943956,1.19889 0.661458,0.4203 1.605414,0.4203 1.143772,0 1.77767,-0.9095 0.633897,-0.90951 0.633897,-2.65962 z"
           inkscape:connector-curvature="0" />
        <path
           id="path836"
           style="font-style:normal;font-variant:normal;font-weight:200;font-stretch:normal;font-size:14.11111069px;line-height:1.25;font-family:'Roboto Thin';-inkscape-font-specification:'Roboto Thin, Ultra-Light';font-variant-ligatures:normal;font-variant-caps:normal;font-variant-numeric:normal;font-feature-settings:normal;text-align:start;letter-spacing:0px;word-spacing:0px;writing-mode:lr-tb;text-anchor:start;fill:url(#linearGradient1041);fill-opacity:1;stroke:none;stroke-width:0.26458332"
           d="m 52.665175,260.23221 q -0.137804,-0.47542 -0.137804,-1.36426 -0.440972,0.71658 -1.205783,1.10932 -0.764811,0.39274 -1.729438,0.39274 -1.033529,0 -1.667426,-0.5581 -0.627008,-0.565 -0.627008,-1.46761 0,-1.02664 0.923286,-1.63987 0.930176,-0.62012 2.466688,-0.6339 h 1.839681 v -1.08865 q 0,-0.93706 -0.592556,-1.45383 -0.585666,-0.51676 -1.681207,-0.51676 -1.019748,0 -1.701877,0.52365 -0.682129,0.52366 -0.682129,1.29536 l -0.37207,-0.0138 q 0,-0.90951 0.799262,-1.5434 0.799262,-0.6339 1.956814,-0.6339 1.205784,0 1.915473,0.60633 0.70969,0.59945 0.730361,1.69499 v 3.56223 q 0,1.22645 0.192925,1.66743 v 0.062 z m -3.073025,-0.22738 q 1.047309,0 1.79834,-0.46853 0.757921,-0.46853 1.136881,-1.31603 v -1.77078 h -1.722547 q -1.598525,0 -2.446018,0.6339 -0.689019,0.51677 -0.689019,1.28847 0,0.68213 0.544325,1.15755 0.544325,0.47542 1.378038,0.47542 z"
           inkscape:connector-curvature="0" />
        <path
           id="path838"
           style="font-style:normal;font-variant:normal;font-weight:200;font-stretch:normal;font-size:14.11111069px;line-height:1.25;font-family:'Roboto Thin';-inkscape-font-specification:'Roboto Thin, Ultra-Light';font-variant-ligatures:normal;font-variant-caps:normal;font-variant-numeric:normal;font-feature-settings:normal;text-align:start;letter-spacing:0px;word-spacing:0px;writing-mode:lr-tb;text-anchor:start;fill:url(#linearGradient1043);fill-opacity:1;stroke:none;stroke-width:0.26458332"
           d="m 57.819038,259.99794 q 1.012858,0 1.667427,-0.53743 0.661458,-0.53744 0.72347,-1.48828 h 0.37207 q -0.05512,1.08176 -0.833713,1.74321 -0.778592,0.65457 -1.929254,0.65457 -1.398708,0 -2.225531,-1.01286 -0.819933,-1.01285 -0.819933,-2.74918 v -0.24805 q 0,-1.69499 0.819933,-2.70784 0.826823,-1.01286 2.211751,-1.01286 1.185113,0 1.956814,0.70969 0.771702,0.70969 0.819933,1.88791 h -0.37207 q -0.04823,-1.00597 -0.70969,-1.6123 -0.654568,-0.61323 -1.694987,-0.61323 -1.247124,0 -1.956814,0.90261 -0.7028,0.89573 -0.7028,2.49425 v 0.24116 q 0,1.56407 0.70969,2.4598 0.71658,0.88883 1.963704,0.88883 z"
           inkscape:connector-curvature="0" />
        <path
           id="path840"
           style="font-style:normal;font-variant:normal;font-weight:200;font-stretch:normal;font-size:14.11111069px;line-height:1.25;font-family:'Roboto Thin';-inkscape-font-specification:'Roboto Thin, Ultra-Light';font-variant-ligatures:normal;font-variant-caps:normal;font-variant-numeric:normal;font-feature-settings:normal;text-align:start;letter-spacing:0px;word-spacing:0px;writing-mode:lr-tb;text-anchor:start;fill:url(#linearGradient1045);fill-opacity:1;stroke:none;stroke-width:0.26458332"
           d="m 63.923747,256.20145 -0.01378,0.0138 -1.08176,0.93017 v 3.08681 h -0.37207 V 249.6489 h 0.37207 v 7.09 l 0.875054,-0.82682 3.389974,-3.13504 h 0.530545 l -3.424425,3.17638 3.638021,4.27881 h -0.482314 z"
           inkscape:connector-curvature="0" />
        <path
           id="path842"
           style="font-style:normal;font-variant:normal;font-weight:200;font-stretch:normal;font-size:14.11111069px;line-height:1.25;font-family:'Roboto Thin';-inkscape-font-specification:'Roboto Thin, Ultra-Light';font-variant-ligatures:normal;font-variant-caps:normal;font-variant-numeric:normal;font-feature-settings:normal;text-align:start;letter-spacing:0px;word-spacing:0px;writing-mode:lr-tb;text-anchor:start;fill:url(#linearGradient1047);fill-opacity:1;stroke:none;stroke-width:0.26458332"
           d="m 69.587484,260.23221 h -0.37207 v -10.58333 h 0.37207 z"
           inkscape:connector-curvature="0" />
        <path
           id="path844"
           style="font-style:normal;font-variant:normal;font-weight:200;font-stretch:normal;font-size:14.11111069px;line-height:1.25;font-family:'Roboto Thin';-inkscape-font-specification:'Roboto Thin, Ultra-Light';font-variant-ligatures:normal;font-variant-caps:normal;font-variant-numeric:normal;font-feature-settings:normal;text-align:start;letter-spacing:0px;word-spacing:0px;writing-mode:lr-tb;text-anchor:start;fill:url(#linearGradient1049);fill-opacity:1;stroke:none;stroke-width:0.26458332"
           d="m 76.863525,260.23221 q -0.137804,-0.47542 -0.137804,-1.36426 -0.440973,0.71658 -1.205784,1.10932 -0.764811,0.39274 -1.729438,0.39274 -1.033528,0 -1.667426,-0.5581 -0.627007,-0.565 -0.627007,-1.46761 0,-1.02664 0.923285,-1.63987 0.930176,-0.62012 2.466689,-0.6339 h 1.839681 v -1.08865 q 0,-0.93706 -0.592557,-1.45383 -0.585666,-0.51676 -1.681206,-0.51676 -1.019748,0 -1.701877,0.52365 -0.682129,0.52366 -0.682129,1.29536 l -0.372071,-0.0138 q 0,-0.90951 0.799263,-1.5434 0.799262,-0.6339 1.956814,-0.6339 1.205783,0 1.915473,0.60633 0.709689,0.59945 0.73036,1.69499 v 3.56223 q 0,1.22645 0.192925,1.66743 v 0.062 z m -3.073026,-0.22738 q 1.047309,0 1.79834,-0.46853 0.757921,-0.46853 1.136882,-1.31603 v -1.77078 h -1.722548 q -1.598524,0 -2.446018,0.6339 -0.689019,0.51677 -0.689019,1.28847 0,0.68213 0.544325,1.15755 0.544325,0.47542 1.378038,0.47542 z"
           inkscape:connector-curvature="0" />
        <path
           id="path846"
           style="font-style:normal;font-variant:normal;font-weight:200;font-stretch:normal;font-size:14.11111069px;line-height:1.25;font-family:'Roboto Thin';-inkscape-font-specification:'Roboto Thin, Ultra-Light';font-variant-ligatures:normal;font-variant-caps:normal;font-variant-numeric:normal;font-feature-settings:normal;text-align:start;letter-spacing:0px;word-spacing:0px;writing-mode:lr-tb;text-anchor:start;fill:url(#linearGradient1051);fill-opacity:1;stroke:none;stroke-width:0.26458332"
           d="m 85.186875,256.57352 q 0,1.74322 -0.751031,2.76985 -0.75103,1.02664 -2.046386,1.02664 -0.840604,0 -1.502062,-0.34451 -0.661458,-0.3514 -1.040419,-0.97151 v 1.17822 h -0.37207 v -10.58333 h 0.37207 v 4.48551 q 0.392741,-0.73725 1.033529,-1.11621 0.647678,-0.37896 1.495171,-0.37896 1.309137,0 2.060167,1.00597 0.751031,0.99907 0.751031,2.81119 z m -0.38585,-0.1447 q 0,-1.60541 -0.640788,-2.50803 -0.633898,-0.9095 -1.777669,-0.9095 -0.937066,0 -1.591635,0.48231 -0.647677,0.48232 -0.943956,1.43316 v 3.41754 q 0.296279,0.79237 0.943956,1.22645 0.654569,0.42719 1.605415,0.42719 1.150662,0 1.777669,-0.91639 0.627008,-0.9164 0.627008,-2.65273 z"
           inkscape:connector-curvature="0" />
        <path
           id="path848"
           style="font-style:normal;font-variant:normal;font-weight:200;font-stretch:normal;font-size:14.11111069px;line-height:1.25;font-family:'Roboto Thin';-inkscape-font-specification:'Roboto Thin, Ultra-Light';font-variant-ligatures:normal;font-variant-caps:normal;font-variant-numeric:normal;font-feature-settings:normal;text-align:start;letter-spacing:0px;word-spacing:0px;writing-mode:lr-tb;text-anchor:start;fill:url(#linearGradient1053);fill-opacity:1;stroke:none;stroke-width:0.26458332"
           d="m 91.801459,258.40631 q 0,-1.35737 -2.315104,-1.84657 -1.391819,-0.29628 -1.936144,-0.75792 -0.544325,-0.46854 -0.544325,-1.28158 0,-0.81993 0.689019,-1.35048 0.69591,-0.53054 1.80523,-0.53054 1.205784,0 1.936144,0.57877 0.73036,0.57189 0.73036,1.5503 h -0.37896 q 0,-0.75103 -0.633898,-1.25402 -0.633898,-0.50298 -1.653646,-0.50298 -0.978407,0 -1.550293,0.42719 -0.571885,0.42719 -0.571885,1.06798 0,0.50298 0.213595,0.79237 0.213596,0.2825 0.69591,0.51677 0.482313,0.22737 1.405599,0.44097 0.923285,0.21359 1.46072,0.50298 0.537435,0.28939 0.778592,0.68902 0.241156,0.39274 0.241156,0.96463 0,0.88194 -0.72347,1.41938 -0.72347,0.53743 -1.894802,0.53743 -1.254015,0 -2.025716,-0.56499 -0.764811,-0.57189 -0.764811,-1.46761 h 0.37207 q 0.05512,0.78548 0.689019,1.22645 0.640788,0.43408 1.729438,0.43408 0.999077,0 1.619195,-0.46164 0.627007,-0.46853 0.627007,-1.12999 z"
           inkscape:connector-curvature="0" />
      </g>
    </g>
  </g>
</svg>
